<?xml version="1.0" encoding="utf-8"?>
<svg id="master-artboard" viewBox="0 0 1400 980" version="1.1" xmlns="http://www.w3.org/2000/svg" x="0px" y="0px" style="enable-background:new 0 0 1400 980;" width="1400px" height="980px">

<path class="st0" d="M241.7,381.2L193.6,300h21.1c11.2,0,15.9-7.7,10.5-16.8L179.7,206h21.4c9,0,12.8-5.9,8.5-13.2l-57.9-97.6&#10;&#9;&#9;c-4.4-7.4-11.5-7.3-15.9,0L78,192.7c-4.4,7.4-0.5,13.3,8.5,13.3h21.4l-45.5,77.2C57,292.3,61.7,300,72.9,300H94l-48.1,81.2&#10;&#9;&#9;c-6.5,11-0.8,19.8,12.6,19.8h170.6C242.5,401,248.2,392.2,241.7,381.2z" style="fill: rgb(95, 89, 142);" transform="matrix(1, 0, 0, 1, 2.842170943040401e-14, 0)"/><path class="st1" d="M153,444.9c0,5-3.4,9.2-7.6,9.2c-4.2,0-7.6-4.1-7.6-9.2V183.4c0-5,3.4-9.2,7.6-9.2c4.2,0,7.6,4.1,7.6,9.2&#10;&#9;&#9;&#9;V444.9z" style="fill: rgb(169, 202, 234);" transform="matrix(1, 0, 0, 1, 5.684341886080802e-14, 0)"/><path class="st1" d="M186.1,274.1c-3.1,2.8-8.4,2.1-11.8-1.6l-29.9-32.8c-3.4-3.7-3.6-9.1-0.5-11.9c3.1-2.8,8.4-2.1,11.8,1.6&#10;&#9;&#9;&#9;l29.9,32.8C189,265.9,189.2,271.3,186.1,274.1z" style="fill: rgb(169, 202, 234);" transform="matrix(1, 0, 0, 1, 5.684341886080802e-14, 0)"/><path class="st1" d="M111.8,355.1c-3.4,3.7-8.7,4.5-11.8,1.6c-3.1-2.8-2.9-8.2,0.5-11.9l35.6-39c3.4-3.7,8.7-4.5,11.8-1.6&#10;&#9;&#9;&#9;c3.1,2.8,2.9,8.2-0.5,11.9L111.8,355.1z" style="fill: rgb(169, 202, 234);" transform="matrix(1, 0, 0, 1, 5.684341886080802e-14, 0)"/>
<path class="st2" d="M494,305.3c0,37.4-30.3,67.7-67.7,67.7h-14.6c-37.4,0-67.7-30.3-67.7-67.7V128.7c0-37.4,30.3-67.7,67.7-67.7&#10;&#9;&#9;h14.6c37.4,0,67.7,30.3,67.7,67.7V305.3z" style="fill: rgb(58, 79, 123);" transform="matrix(1, 0, 0, 1, 2.842170943040401e-14, 0)"/><path class="st3" d="M426.8,444.9c0,5-3.4,9.2-7.6,9.2c-4.2,0-7.6-4.1-7.6-9.2V123.7c0-5,3.4-9.2,7.6-9.2c4.2,0,7.6,4.1,7.6,9.2&#10;&#9;&#9;&#9;V444.9z" style="fill: rgb(180, 159, 221);" transform="matrix(1, 0, 0, 1, 5.684341886080802e-14, 0)"/><path class="st3" d="M424.8,294c-3.1,2.8-8.4,2-11.7-1.8l-45.6-52.4c-3.3-3.8-3.5-9.2-0.4-12.1c3.1-2.8,8.4-2,11.7,1.8l45.6,52.4&#10;&#9;&#9;&#9;C427.7,285.7,427.9,291.2,424.8,294z" style="fill: rgb(180, 159, 221);" transform="matrix(1, 0, 0, 1, 5.684341886080802e-14, 0)"/><path class="st3" d="M467,162.1c3.5,2.3,4,7.6,1.1,11.8l-39.8,57c-2.9,4.1-8.1,5.6-11.6,3.3c-3.5-2.3-4-7.6-1.1-11.8l39.8-57&#10;&#9;&#9;&#9;C458.2,161.3,463.5,159.8,467,162.1z" style="fill: rgb(180, 159, 221);" transform="matrix(1, 0, 0, 1, 5.684341886080802e-14, 0)"/>
<path class="st4" d="M686.2,79.7c2.5-8,6.5-8,9,0l78.5,254.5c2.5,8-2.4,14.8-10.8,14.8H618.4c-8.4,0-13.3-6.8-10.8-14.8L686.2,79.7&#10;&#9;&#9;z" style="fill: rgb(60, 115, 132);" transform="matrix(1, 0, 0, 1, 2.842170943040401e-14, 0)"/><path class="st5" d="M699.1,444.9c0,5-3.4,9.2-7.6,9.2c-4.2,0-7.6-4.1-7.6-9.2V191c0-5,3.4-9.2,7.6-9.2c4.2,0,7.6,4.1,7.6,9.2&#10;&#9;&#9;&#9;V444.9z" style="fill: rgb(219, 161, 219);" transform="matrix(1, 0, 0, 1, 5.684341886080802e-14, 0)"/><path class="st5" d="M727,273.8c3.5,2.3,4.1,7.7,1.3,11.9L702,325.6c-2.8,4.2-7.9,5.8-11.4,3.4c-3.5-2.3-4.1-7.7-1.3-11.9&#10;&#9;&#9;&#9;l26.4-39.9C718.4,273,723.5,271.5,727,273.8z" style="fill: rgb(219, 161, 219);" transform="matrix(1, 0, 0, 1, 5.684341886080802e-14, 0)"/><path class="st5" d="M693.4,289.2c-3.5,2.3-8.7,0.8-11.5-3.4l-26.4-39.8c-2.8-4.2-2.2-9.5,1.3-11.9c3.5-2.3,8.7-0.8,11.5,3.4&#10;&#9;&#9;&#9;l26.4,39.8C697.5,281.5,696.9,286.9,693.4,289.2z" style="fill: rgb(219, 161, 219);" transform="matrix(1, 0, 0, 1, 5.684341886080802e-14, 0)"/>
<path d="M 1058.299988 189 A 103 103 0 0 1 955.299988 292 A 103 103 0 0 1 852.299988 189 A 103 103 0 0 1 955.299988 86 A 103 103 0 0 1 1058.299988 189 Z" class="st6" style="fill: rgb(115, 87, 170);" transform="matrix(1, 0, 0, 1, 2.842170943040401e-14, 0)"/><path class="st7" d="M962.1,444.9c0,5-3.4,9.2-7.6,9.2s-7.6-4.1-7.6-9.2V183.4c0-5,3.4-9.2,7.6-9.2s7.6,4.1,7.6,9.2V444.9z" style="fill: rgb(171, 219, 204);" transform="matrix(1, 0, 0, 1, 5.684341886080802e-14, 0)"/><path class="st7" d="M997.7,224c2.8,3.2,2,8.5-1.8,11.8l-33.4,29.4c-3.8,3.3-9.2,3.5-11.9,0.3c-2.8-3.2-2-8.5,1.8-11.8l33.4-29.4&#10;&#9;&#9;&#9;C989.6,221,995,220.9,997.7,224z" style="fill: rgb(171, 219, 204);" transform="matrix(1, 0, 0, 1, 5.684341886080802e-14, 0)"/><path class="st7" d="M912.6,191.6c3-2.9,8.4-2.3,11.9,1.3l30.9,31.9c3.5,3.6,3.9,9,0.9,11.9c-3,2.9-8.4,2.4-11.9-1.3l-30.9-31.9&#10;&#9;&#9;&#9;C909.9,199.9,909.5,194.6,912.6,191.6z" style="fill: rgb(171, 219, 204);" transform="matrix(1, 0, 0, 1, 5.684341886080802e-14, 0)"/>
<path class="st0" d="M760.2,739.5c0,95-31.1,97.1-69.5,97.1c-38.4,0-69.5-2.1-69.5-97.1c0-95,31.1-211.8,69.5-211.8&#10;&#9;&#9;C729.1,527.6,760.2,644.4,760.2,739.5z" style="fill: rgb(95, 89, 142);" transform="matrix(1, 0, 0, 1, 2.842170943040401e-14, 0)"/><path class="st1" d="M699.1,886.9c0,5-3.4,9.2-7.6,9.2c-4.2,0-7.6-4.1-7.6-9.2V625.4c0-5,3.4-9.2,7.6-9.2c4.2,0,7.6,4.1,7.6,9.2&#10;&#9;&#9;&#9;V886.9z" style="fill: rgb(169, 202, 234);" transform="matrix(1, 0, 0, 1, 5.684341886080802e-14, 0)"/><path class="st1" d="M695.5,769.7c-3.1,2.8-8.4,2.1-11.8-1.6l-29.9-32.8c-3.4-3.7-3.6-9.1-0.5-11.9c3.1-2.8,8.4-2.1,11.8,1.6&#10;&#9;&#9;&#9;l29.9,32.8C698.3,761.5,698.6,766.8,695.5,769.7z" style="fill: rgb(169, 202, 234);" transform="matrix(1, 0, 0, 1, 5.684341886080802e-14, 0)"/><path class="st1" d="M688.3,697.8c3.1,2.8,8.4,2.1,11.8-1.6l29.9-32.8c3.4-3.7,3.6-9.1,0.5-11.9c-3.1-2.8-8.4-2.1-11.8,1.6&#10;&#9;&#9;&#9;l-29.9,32.8C685.5,689.6,685.2,695,688.3,697.8z" style="fill: rgb(169, 202, 234);" transform="matrix(1, 0, 0, 1, 5.684341886080802e-14, 0)"/>
<path d="M 527.800011 589.599976 A 107.099998 78.900002 0 0 1 420.700012 668.499977 A 107.099998 78.900002 0 0 1 313.600014 589.599976 A 107.099998 78.900002 0 0 1 420.700012 510.699974 A 107.099998 78.900002 0 0 1 527.800011 589.599976 Z" class="st6" style="fill: rgb(115, 87, 170);" transform="matrix(1, 0, 0, 1, 2.842170943040401e-14, 0)"/><g transform="matrix(1, 0, 0, 1, 5.684341886080802e-14, 0)">
			<path class="st7" d="M428.3,886.9c0,5-3.4,9.2-7.6,9.2c-4.2,0-7.6-4.1-7.6-9.2V585.6c0-5,3.4-9.2,7.6-9.2c4.2,0,7.6,4.1,7.6,9.2&#10;&#9;&#9;&#9;&#9;V886.9z" style="fill: rgb(171, 219, 204);"/>
		</g><path class="st7" d="M473.1,620.2c2.8,3.2,2.8,9.2,0.1,13.5l-46.4,72c-2.7,4.2-7.2,5.1-10,2c-2.8-3.2-2.8-9.2-0.1-13.5l46.4-71.9&#10;&#9;&#9;&#9;&#9;C465.8,617.9,470.3,617,473.1,620.2z" style="fill: rgb(171, 219, 204);" transform="matrix(1, 0, 0, 1, 8.526512829121202e-14, 0)"/><path class="st7" d="M372.6,618.4c3-2.9,8.1-2.1,11.3,1.8l38.1,46.3c3.2,3.9,3.4,9.5,0.3,12.4c-3,2.9-8.1,2.1-11.3-1.8&#10;&#9;&#9;&#9;&#9;l-38.1-46.3C369.7,626.9,369.6,621.3,372.6,618.4z" style="fill: rgb(171, 219, 204);" transform="matrix(1, 0, 0, 1, 8.526512829121202e-14, 0)"/>
<path d="M 231.100006 663.599976 A 87.300003 134.600006 0 0 1 143.800003 798.199982 A 87.300003 134.600006 0 0 1 56.5 663.599976 A 87.300003 134.600006 0 0 1 143.800003 528.999969 A 87.300003 134.600006 0 0 1 231.100006 663.599976 Z" class="st4" style="fill: rgb(60, 115, 132);" transform="matrix(1, 0, 0, 1, 2.842170943040401e-14, 0)"/><g transform="matrix(1, 0, 0, 1, 5.684341886080802e-14, 0)">
			<path class="st5" d="M151.5,886.9c0,5-3.4,9.2-7.6,9.2c-4.2,0-7.6-4.1-7.6-9.2V633c0-5,3.4-9.2,7.6-9.2c4.2,0,7.6,4.1,7.6,9.2&#10;&#9;&#9;&#9;&#9;V886.9z" style="fill: rgb(219, 161, 219);"/>
		</g><path class="st5" d="M179.5,715.8c3.5,2.3,4.1,7.7,1.3,11.9l-26.4,39.9c-2.8,4.2-7.9,5.8-11.4,3.4c-3.5-2.3-4.1-7.7-1.3-11.9&#10;&#9;&#9;&#9;&#9;l26.4-39.9C170.8,715,176,713.5,179.5,715.8z" style="fill: rgb(219, 161, 219);" transform="matrix(1, 0, 0, 1, 8.526512829121202e-14, 0)"/><path class="st5" d="M145.9,731.2c-3.5,2.3-8.7,0.8-11.5-3.4L108,688c-2.8-4.2-2.2-9.5,1.3-11.9c3.5-2.3,8.7-0.8,11.5,3.4&#10;&#9;&#9;&#9;&#9;l26.4,39.8C150,723.6,149.4,728.9,145.9,731.2z" style="fill: rgb(219, 161, 219);" transform="matrix(1, 0, 0, 1, 8.526512829121202e-14, 0)"/>
<path class="st2" d="M1029.2,613.6c-20.5-60.8-68.2-115.4-73.2-121.7v-0.6c0,0,0.2,0.1,0,0.3c-0.2-0.2,0-0.3,0-0.3v0.6&#10;&#9;&#9;c-8,6.3-54,60.9-74.6,121.7C855.6,689.9,861.3,794,955.3,794C1049.3,794,1055,689.9,1029.2,613.6z" style="fill: rgb(58, 79, 123);" transform="matrix(1, 0, 0, 1, 2.842170943040401e-14, 0)"/><g transform="matrix(1, 0, 0, 1, 5.684341886080802e-14, 0)">
			<path class="st3" d="M963.7,886.9c0,5-3.4,9.2-7.6,9.2c-4.2,0-7.6-4.1-7.6-9.2V579.5c0-5,3.4-9.2,7.6-9.2c4.2,0,7.6,4.1,7.6,9.2&#10;&#9;&#9;&#9;&#9;V886.9z" style="fill: rgb(180, 159, 221);"/>
		</g><path class="st3" d="M961.6,749.8c-3.1,2.8-8.4,2-11.7-1.8l-45.6-52.4c-3.3-3.8-3.5-9.2-0.4-12.1c3.1-2.8,8.4-2,11.7,1.8&#10;&#9;&#9;&#9;&#9;l45.6,52.4C964.5,741.5,964.7,747,961.6,749.8z" style="fill: rgb(180, 159, 221);" transform="matrix(1, 0, 0, 1, 8.526512829121202e-14, 0)"/><path class="st3" d="M1003.8,617.9c3.5,2.3,4,7.6,1.1,11.8l-39.8,57c-2.9,4.1-8.1,5.6-11.6,3.3c-3.5-2.3-4-7.6-1.1-11.8l39.8-57&#10;&#9;&#9;&#9;&#9;C995.1,617.1,1000.3,615.6,1003.8,617.9z" style="fill: rgb(180, 159, 221);" transform="matrix(1, 0, 0, 1, 8.526512829121202e-14, 0)"/>
<path class="st4" d="M1237.7,525.4c3.9-7.4,10.4-7.4,14.3,0l78.8,149.2c3.9,7.4,0.3,13.5-8.2,13.5h-155.5c-8.4,0-12.1-6-8.2-13.5&#10;&#9;&#9;L1237.7,525.4z" style="fill: rgb(60, 115, 132);" transform="matrix(1, 0, 0, 1, 2.842170943040401e-14, 0)"/><path class="st4" d="M1237.7,614.1c3.9-7.4,10.4-7.4,14.3,0l97.8,185.8c3.9,7.4,0.3,14.1-8.2,14.1H1148c-8.4,0-12.1-6.7-8.2-14.1&#10;&#9;&#9;L1237.7,614.1z" style="fill: rgb(60, 115, 132);" transform="matrix(1, 0, 0, 1, 2.842170943040401e-14, 0)"/><g transform="matrix(1, 0, 0, 1, 5.684341886080802e-14, 0)">
			<path class="st5" d="M1237.4,886.9c0,5,3.4,9.2,7.6,9.2s7.6-4.1,7.6-9.2V625.4c0-5-3.4-9.2-7.6-9.2s-7.6,4.1-7.6,9.2V886.9z" style="fill: rgb(219, 161, 219);"/>
		</g><path class="st5" d="M1204.3,716.1c3.1,2.8,8.4,2.1,11.8-1.6l29.9-32.8c3.4-3.7,3.6-9.1,0.5-11.9c-3.1-2.8-8.4-2.1-11.8,1.6&#10;&#9;&#9;&#9;&#9;l-29.9,32.8C1201.4,707.9,1201.2,713.3,1204.3,716.1z" style="fill: rgb(219, 161, 219);" transform="matrix(1, 0, 0, 1, 8.526512829121202e-14, 0)"/><path class="st5" d="M1278.6,797.1c3.4,3.7,8.7,4.5,11.8,1.6c3.1-2.8,2.9-8.2-0.5-11.9l-35.6-39c-3.4-3.7-8.7-4.5-11.8-1.6&#10;&#9;&#9;&#9;&#9;c-3.1,2.8-2.9,8.2,0.5,11.9L1278.6,797.1z" style="fill: rgb(219, 161, 219);" transform="matrix(1, 0, 0, 1, 8.526512829121202e-14, 0)"/>
<path d="M 1291.000023 170.699997 A 43.599998 53.099998 0 0 1 1247.400024 223.799995 A 43.599998 53.099998 0 0 1 1203.800026 170.699997 A 43.599998 53.099998 0 0 1 1247.400024 117.599998 A 43.599998 53.099998 0 0 1 1291.000023 170.699997 Z" class="st0" style="fill: rgb(95, 89, 142);" transform="matrix(1, 0, 0, 1, 2.842170943040401e-14, 0)"/><path d="M 1220.599998 285.399994 A 43.599998 53.099998 0 0 1 1177 338.499992 A 43.599998 53.099998 0 0 1 1133.400002 285.399994 A 43.599998 53.099998 0 0 1 1177 232.299995 A 43.599998 53.099998 0 0 1 1220.599998 285.399994 Z" transform="matrix(0.693600058555603, -0.7202999591827393, 0.7202999591827393, 0.693600058555603, 155.04600524902344, 935.2774047851564)" class="st0" style="fill: rgb(95, 89, 142);"/><path d="M 1355.199974 260.899994 A 43.599998 53.099998 0 0 1 1311.599976 313.999992 A 43.599998 53.099998 0 0 1 1267.999977 260.899994 A 43.599998 53.099998 0 0 1 1311.599976 207.799995 A 43.599998 53.099998 0 0 1 1355.199974 260.899994 Z" transform="matrix(-0.693600058555603, -0.7202999591827393, 0.7202999591827393, -0.693600058555603, 2033.4825439453127, 1386.6644287109375)" class="st0" style="fill: rgb(95, 89, 142);"/><path class="st1" d="M1255.8,444.9c0,5-3.4,9.2-7.6,9.2s-7.6-4.1-7.6-9.2V183.4c0-5,3.4-9.2,7.6-9.2s7.6,4.1,7.6,9.2V444.9z" style="fill: rgb(169, 202, 234);" transform="matrix(1, 0, 0, 1, 5.684341886080802e-14, 0)"/><path class="st1" d="M1311.6,262.6c2.9,3,2.2,8.2-1.6,11.5l-52.4,45.7c-3.8,3.3-9.3,3.6-12.3,0.6c-2.9-3-2.2-8.2,1.6-11.5&#10;&#9;&#9;&#9;l52.4-45.7C1303.1,259.8,1308.7,259.6,1311.6,262.6z" style="fill: rgb(169, 202, 234);" transform="matrix(1, 0, 0, 1, 5.684341886080802e-14, 0)"/><path class="st1" d="M1177.7,299c-3.7-3.4-4.2-8.6-1.1-11.4c3.1-2.9,8.6-2.4,12.3,1l60.9,56.5c3.7,3.4,4.2,8.6,1.1,11.4&#10;&#9;&#9;&#9;c-3.1,2.9-8.6,2.4-12.3-1L1177.7,299z" style="fill: rgb(169, 202, 234);" transform="matrix(1, 0, 0, 1, 5.684341886080802e-14, 0)"/>
</svg>