<?xml version="1.0" encoding="utf-8"?>
<!-- Generator: Adobe Illustrator 22.1.0, SVG Export Plug-In . SVG Version: 6.00 Build 0)  -->
<svg version="1.1" id="svg" xmlns="http://www.w3.org/2000/svg" xmlns:xlink="http://www.w3.org/1999/xlink" x="0px" y="0px"
	 viewBox="0 0 400 92.9" style="enable-background:new 0 0 400 92.9;" xml:space="preserve">
<style type="text/css">
	.st0{fill:#2282AA;}
	.st1{fill:#3BA3D3;}
	.st2{fill:#F5F5F6;}
	.st3{fill:#1A7494;}
</style>
<polyline class="st0" points="203.1,63.9 205.1,67.3 208.9,74.9 199.8,82.2 193,76.6 199.2,61.6 "/>
<polyline class="st0" points="212.5,87.4 209.6,70.9 224.8,89.7 "/>
<polyline class="st1" points="202.4,77.6 209.6,70.9 210.8,77.7 "/>
<polygon class="st1" points="225.4,71.3 221.5,85.7 209.7,70.9 "/>
<polyline class="st1" points="200.2,79.9 198.7,65.8 194.8,77.7 "/>
<polygon class="st2" points="209.6,70.7 204.8,75.4 206.6,75 206.8,77 209.4,75.1 210.7,77.1 211.8,75.2 213.8,76 "/>
<g>
	<polygon class="st3" points="240.3,92 221.4,61.8 244.7,47.3 263.6,77.4 	"/>
	<path id="path3" class="st0" d="M285.9,62.6c-0.6,0.3-1.7,0.7-1.8,0.7c0,0-0.2,0.1-0.5,0.2c-0.2,0.1-0.5,0.2-0.5,0.2
		c0,0-0.3,0.1-0.5,0.2c-0.2,0.1-0.4,0.2-0.4,0.1s-0.1,0-0.2,0c-0.1,0.1-0.5,0.3-0.9,0.4c-0.7,0.2-0.7,0.3-1.7,2.3
		c-0.6,1.1-1.1,2-1.1,1.9c-0.1-0.1-0.1,0,0,0.2c0.1,0.2,0,0.3-0.1,0.3s-0.1,0.1-0.1,0.2c0.1,0.1,0,0.2-0.1,0.2
		c-0.2,0-2.9,5.2-2.7,5.3c0.1,0,0.2,0.1,0.2,0.2s1.4,2.5,3.2,5.4l3.2,5.2l0.5-0.5c0.3-0.3,0.5-0.6,0.5-0.7c0-0.2,1.6-1.7,2.4-2.2
		c0.4-0.3,0.8-0.6,0.8-0.6c0-0.1,0.1-0.1,0.2,0c0.1,0.1,0.2,0,0.2-0.1s0.1-0.1,0.2-0.1c0.1,0.1,0.2,0,0.2-0.1s0.1-0.2,0.1-0.1
		c0.1,0,0.3-0.1,0.5-0.2c0.2-0.1,0.4-0.2,0.4-0.1s0.1,0,0.2-0.1c0.1-0.1,0.4-0.2,0.7-0.3c0.3,0,0.8-0.1,1.1-0.2
		c0.4-0.1,1.5-0.2,2.5-0.2c1.6,0,2.2,0.1,3.5,0.4c0.2,0,0.4,0.1,0.5,0.1c0.1,0,0.3,0.1,0.4,0.2c0.1,0.1,0.2,0.1,0.2,0
		c0-0.1,0.3,0.1,0.6,0.3c0.3,0.2,0.6,0.3,0.6,0.3s0.1,0,0.3,0.2c0.1,0.1,0.4,0.3,0.5,0.3c0.1,0,0.2,0.1,0.2,0.2s0.1,0.2,0.2,0.2
		c0.2,0,0.4,0.2,1,0.7c0.3,0.3,0.3,0.3,0.4-0.2c0.2-0.9-0.1-1.6-2.8-9.2l-2.8-7.8l-0.8-0.7c-0.4-0.4-0.9-0.7-1-0.7
		c-0.1,0-0.2-0.1-0.2-0.2c0-0.1-0.1-0.2-0.2-0.2c-0.1,0-0.3-0.1-0.4-0.3c-0.1-0.2-0.3-0.2-0.5-0.2c-0.2,0.1-0.3,0.2-0.3,0.3
		c0.1,0.1,0,0.2-0.1,0.2c-0.1,0-0.2,0.1-0.2,0.2c0,0.1-0.1,0.3-0.2,0.5c-0.3,0.3-2.1,3.3-2.2,3.8c-0.1,0.2-0.2,0.4-0.3,0.4
		c-0.1,0-0.2,0.2-0.3,0.4c-0.3,1.1-0.6,1-0.9-0.3c-0.1-0.6-0.2-1.2-0.3-1.4c0-0.2-0.1-0.6-0.2-0.8c0-0.2-0.1-0.6-0.2-0.8
		c0-0.2-0.1-0.6-0.2-1c-0.1-0.8-0.2-1.3-0.3-1.8c0-0.2-0.1-0.5-0.1-0.6c0-0.1,0-0.2,0-0.2C286.4,62.3,286.2,62.5,285.9,62.6
		 M258.8,71.9c-0.8,0.7-1.7,1.6-2.1,1.9c-0.4,0.3-0.7,0.6-0.8,0.6c-0.1,0-0.1,0.1-0.1,0.1c0,0.1-1.5,3-3.9,7.4l-0.7,1.3l1.3,0
		c1.2,0,1.9,0.1,2.9,0.3c0.8,0.2,0.9,0.2,1,0.3c0,0,0.1,0,0.2,0.1c0.1,0,0.3,0.1,0.5,0.2c0.2,0.1,0.4,0.2,0.4,0.1
		c0,0,0.4,0.1,0.8,0.4c0.5,0.3,0.9,0.5,1,0.5c0.1,0,0.2,0.1,0.2,0.2s0.1,0.2,0.2,0.2c0.1,0,0.3,0.1,0.4,0.3c0.1,0.2,0.2,0.2,0.2,0.1
		c0-0.1,0.3-2.1,0.8-4.6l0.8-4.4l-0.6-2.9C260.3,70.2,260.5,70.4,258.8,71.9 M211.3,72.6c-0.4-0.4-0.6-0.7-0.4-0.6
		c0.2,0.1,0-0.2-0.4-0.6c-0.4-0.4-0.6-0.7-0.5-0.6c0.2,0.1,0.3,0.1,0.2-0.1c-0.2-0.3-0.6-0.4-0.6-0.1 M209.6,70.5
		c0,0.1-0.1,0.4-0.1,0.7c-0.1,0.3-0.1,0.4,0.1,0.2c0.2-0.2,0.3,0,0.1,0.7c-0.1,0.7-0.1,0.9,0.1,0.8c0.2-0.1,0.2,0,0.1,0.6
		c-0.1,0.6-0.1,0.8,0.1,0.6c0.2-0.1,0.2,0,0.1,0.6c-0.1,0.6-0.1,0.8,0.2,0.9c0.2,0.1,0.5,0.2,0.7,0.3c0.2,0.1,0.2,0.1,0.1-0.1
		c-0.1-0.2,0.1-0.6,0.5-1l0.6-0.7l-0.5-0.5 M164.4,80.6c-0.7,0.7-0.3,2.5,0.8,3.3c0.5,0.4,1.3,1.2,1.8,1.8c0.5,0.6,0.9,1,0.8,0.8
		c-0.1-0.2-0.6-1.4-1.2-2.6c-0.6-1.3-1.1-2.6-1.1-3C165.4,80.1,165,80,164.4,80.6"/>
	<path class="st1" d="M221.7,45l-2.7,1l-1.2,1.8c-2.6,3.9-11.1,16.9-11.2,17.1c-0.1,0.1-0.5,0.7-0.9,1.3l-0.7,1.1l1.3,2.7l1.3,2.7
		l-1,1c-0.9,1-1,1-0.5,0.9c0.8-0.2,2.8-0.1,3.5,0.2c0.8,0.3,0.8,0.4,0.4-1.9c-0.2-1-0.3-1.8-0.3-1.9c0-0.1,0.6,0.6,1.3,1.5l1.3,1.6
		l0.6-0.4c3.3-2.2,8.3-0.2,8.1,3.2l0,0.9l-2.8,0c-1.5,0-2.8,0.1-2.8,0.1s1.9,2.4,4.2,5.3c2.3,2.9,4.2,5.3,4.2,5.4
		c0,0.1,0.2,0.3,0.4,0.4c0.2,0.1,0.5,0.4,0.5,0.6c0.1,0.3,0.1,0.3,0.4-0.3c1.7-3.4,8.1-4.5,11.3-1.8c0.5,0.4,2.2,0.4,2.8-0.1
		c0.1-0.1-0.6-6.7-1.5-14.7c-0.9-8-1.7-15.1-1.8-15.7c-0.1-1-4.4-9.3-5.3-10.4c-0.2-0.2-0.8,0.4-3.3,2.7c-1.7,1.6-3.1,2.9-3.1,2.9
		c0,0,0.1-1.5,0.3-3.4c0.3-3.7,0.4-4.8,0.2-4.8C224.5,43.9,223.2,44.4,221.7,45 M190.6,61.6c-1.6,1-2.1,1.4-2.6,2.2
		c-0.7,1-1.6,2.4-4.3,6.4c-1,1.5-2.8,4.2-4.1,6.1l-2.3,3.4l-0.8-1.1c-0.5-0.6-1.6-2.2-2.6-3.5c-1-1.4-1.8-2.5-1.9-2.5
		c-0.1,0-0.7-0.8-1.3-1.8c-4.1-5.6-5.5-7.4-5.8-7.3c-0.2,0-0.3,0.4-0.3,2.6c0,1.4-0.1,2.8-0.1,3c-0.1,0.6,0,1,0.4,1
		c0.3,0,0.3,0.5,0.2,5.5l0,5.5l0.9,2.2c0.5,1.2,0.9,2.3,0.9,2.4c0,0.1,1,0.1,2.1,0.1c2.2,0,3.6,0.3,4.8,0.8c0.4,0.2,0.5,0.2,1.3-0.2
		c3.1-1.5,7.3-0.5,8.9,2.1c0.2,0.3,2.9,0.6,2.9,0.3c0-1.5,4.4-4.5,7.4-5.1c4.5-0.9,10.5,0.7,12.4,3.5c0.2,0.4,0.4,0.4,2.2,0.3
		c1.4,0,2.2,0,2.7,0.2c1.3,0.4,1.3,0.5,0.3-5.1l-0.9-4.9l-4.2,0l-4.2,0l-1.1,1.1l-1.1,1.1l-0.1-0.7c-0.1-0.4-0.1-0.9-0.1-1.1l0-0.5
		h-2c-1.8,0-2,0-1.8-0.3c0.3-0.4,2.5-1.4,2.9-1.4c0.6,0,0.6-0.2,0.1-5.9c-0.6-6-0.4-5.2-2.2-7.7l-1-1.3l-0.9,0.9l-0.9,0.9l-0.8-1.2
		l-0.8-1.2L190.6,61.6 M240.8,52.6c0.6,0.6,1.1,1.1,1.2,1.1c0,0-0.4-0.5-1-1.1s-1.1-1.1-1.2-1.1S240.2,52,240.8,52.6 M295.9,63.1
		c-0.1,0.3-0.4,0.9-0.6,1.4c-0.2,0.4-0.4,0.7-0.5,0.7c-0.2,0-0.1,0,0,0.3c0.1,0.2,1.5,3.7,3,7.9c1.5,4.2,2.8,7.7,2.9,7.8
		c0.1,0.1,0.1-3.4,0.2-8.4c0-10.2,0.3-9-2.6-9.7l-2.1-0.5L295.9,63.1 M259.9,70.9l-0.3,0.4L259.9,70.9c0.3-0.2,0.4-0.2,0.5,0
		c0.1,0.1,0.1,0.2,0.1,0C260.5,70.5,260.2,70.5,259.9,70.9 M257.7,72.9l-0.5,0.5L257.7,72.9c0.6-0.4,0.7-0.5,0.5-0.5
		C258.3,72.3,258,72.6,257.7,72.9 M263.4,74.8c-0.8,1.1-1.5,2-1.6,2.1s-0.5,2.2-0.9,4.7l-0.8,4.5l0.7,0.7c0.4,0.4,0.9,1,1.1,1.3
		c0.5,0.8,0.5,0.8,1.9,0.7c1.1-0.1,1.2-0.1,1.6-0.7c1.7-2.4,5.7-3.2,8.6-1.7l0.8,0.4l1-0.4c1.4-0.6,3.1-0.8,4.8-0.7
		c1.3,0.1,1.5,0.1,1.3-0.1c-0.1-0.1-1.6-2.5-3.4-5.4l-3.2-5.2l-1.4-0.8c-0.8-0.4-1.4-0.8-1.4-0.7c0,0-0.4,1.4-0.8,3
		c-0.4,1.6-0.8,3-0.8,3c-0.1,0.1-1.5-1.4-3.1-3.2c-1.6-1.8-3-3.4-3.1-3.4C264.9,72.9,264.2,73.7,263.4,74.8"/>
	<path id="path0" class="st2" d="M287.1,52c-3,5.9-3.5,6.8-3.6,7c-0.1,0.1-0.6,1.2-1.3,2.5c-0.6,1.3-1.2,2.3-1.3,2.4
		c-0.1,0.1-0.7,1.2-0.6,1.2c0,0,1.4-0.5,3-1.2s3-1.2,3-1.1c0,0,0.4,1.8,0.8,3.8c0.4,2.1,0.8,3.8,0.8,3.8c0,0,0.9-1.5,2-3.3
		c1.1-1.9,2-3.4,2.1-3.4c0.1,0,0.7,0.4,1.4,0.9c1.6,1.2,1.5,1.2,2.2-0.3c0.3-0.8,0.6-1.4,0.7-1.3c0.9,0.1,4.1,1,4.3,1.2
		c0.5,0.4,0.3,0-0.2-0.6c-0.3-0.3-1.1-1.3-1.8-2.3c-0.7-1-1.8-2.4-2.4-3.1c-1.8-2.4-4.2-5.5-5.6-7.4c-0.8-1-1.5-1.9-1.6-1.9
		C288.8,48.8,288,50.3,287.1,52 M196.8,51.1c-0.1,0.2-1.1,1.5-2.1,3c-1.8,2.6-3,4.3-5.1,7.4c-0.6,0.8-1.1,1.6-1.1,1.6
		c0,0,0.9-0.5,1.9-1.1l1.9-1.2l0.8,1.2l0.8,1.2l0.9-0.9l0.9-0.9l1.3,1.7c1.6,2.1,1.4,2,2.2,0.7c0.8-1.3,0.5-1.2,2.4-0.5
		c0.8,0.3,1.5,0.5,1.5,0.5c0.1-0.1-0.4-1.3-1.6-3.7c-0.4-0.9-1.1-2.3-1.5-3.2c-0.4-0.9-1.1-2.4-1.6-3.4c-0.5-1-1-2-1.1-2.3
		C197.1,50.8,197.1,50.8,196.8,51.1 M264.2,59c-0.4,0.8-1,1.9-1.3,2.5c-0.3,0.6-1.2,2.2-1.8,3.5c-0.7,1.3-1.4,2.5-1.5,2.8
		c-0.1,0.2-0.7,1.2-1.1,2.2c-0.5,0.9-1.3,2.5-1.8,3.5l-1,1.8l2.1-2c2.5-2.3,2.4-2.3,2.6-1.4c0.1,0.4,0.4,1.9,0.7,3.3l0.5,2.6l1.6-2
		c0.9-1.1,1.6-2.1,1.7-2.2c0.1-0.1,1.6,1.5,3.3,3.4c1.8,1.9,3.2,3.5,3.3,3.4c0.1-0.1,0.4-1.5,0.9-3.1c0.4-1.7,0.8-3,0.8-3.1
		c0,0,0.7,0.3,1.5,0.7c0.8,0.4,1.4,0.7,1.3,0.7c0-0.1-0.5-0.8-0.9-1.6c-2.7-4.5-3.8-6.3-5-8.2c-0.7-1.1-1.7-2.7-2.1-3.4
		c-0.5-0.7-1.3-2.1-1.9-3l-1.1-1.7L264.2,59 M155.3,79.6c0,0-0.3,0.1-0.6,0.2c-1.8,0.3-4.4,1.4-5.5,2.4l-0.6,0.5v5.1v5.1h75.8h75.8
		l0.1-1.4c0.4-5.1,0.5-8.6,0.3-8.9c-0.4-0.5-2.6-1.8-3.8-2.3c-5.3-1.9-11.7,0.1-14,4.4l-0.4,0.7l-1.5-0.1c-1.8-0.1-3.4,0.1-4.8,0.7
		l-1,0.4l-0.8-0.4c-2.9-1.6-7-0.7-8.6,1.8c-0.5,0.8-2.7,1.2-3.1,0.6c-4.1-6.4-13.8-7.4-19.2-2l-0.9,0.9l-1.3-0.2
		c-1-0.1-1.6-0.1-2.7,0.1l-1.4,0.3l-0.5-0.5c-3.2-2.8-10.5-1.4-11.4,2.2c-0.1,0.6-0.3,0.5-1-0.5c-2.2-3.5-8-4.3-11.2-1.4
		c-0.5,0.4-0.5,0.4-1.3,0.2c-0.5-0.2-1.4-0.2-2.7-0.2c-1.9,0.1-2,0-2.2-0.3c-1.9-2.8-7.9-4.5-12.4-3.6c-3,0.7-7.4,3.8-7.4,5.3
		c0,0.3-2.7,0-2.9-0.3c-1.5-2.8-5.8-3.8-8.9-2.2c-0.8,0.4-0.9,0.4-1.3,0.2c-1.1-0.6-2.6-0.9-4.7-0.9l-2.1,0l-0.2-0.5
		c-0.7-1.8-3.6-3.9-6.4-4.9C159.2,79.7,155.5,79.3,155.3,79.6"/>
	<polygon class="st2" points="231.9,27.1 219.1,46 224.3,44.4 223.8,52.5 230.2,46.9 235.5,56 239,50.8 242.1,53.7 243.3,49.4 
		247.6,51.9 	"/>
</g>
<path class="st2" d="M144.8,17.2c-1.3,0.5-2.8,1.9-2.8,2.6c0,0.3-0.1,0.3-0.8-0.2c-2-1.4-5.2-1.1-6.9,0.5l-0.7,0.7l-1-0.3
	c-2-0.6-4.7,0.1-6.2,1.4l-0.4,0.4l13,0l13,0l0.1-1C152.2,18.2,148.3,15.9,144.8,17.2"/>
<path class="st2" d="M134.2,7.1c-2.1,0.7-3.2,2.7-2.5,4.5l0.2,0.6h12.6c11.2,0,12.6,0,12.4-0.3c-0.3-0.4-1.7-0.9-2.6-1
	c-0.7-0.1-0.9-0.2-1.1-0.5c-0.5-0.9-2.4-1.3-3.6-0.8c-0.5,0.2-0.7,0.2-1.5,0c-0.5-0.1-1.3-0.2-1.7-0.2c-0.7,0-0.8,0-1.1-0.4
	c-1.1-1.7-3.9-2.6-6.2-1.9c-0.7,0.2-0.9,0.2-1.6,0C136.5,6.8,135.1,6.8,134.2,7.1"/>
<path class="st2" d="M140.3,26.5c-0.8,0.2-1.8,0.9-2.2,1.5l-0.3,0.5l-0.6-0.3c-1.3-0.8-3.8-0.5-4.7,0.5c-0.2,0.3-0.4,0.3-0.9,0.1
	c-1.3-0.4-4,0.2-4.3,1c-0.1,0.2,1.4,0.2,10.9,0.2c12.2,0,11.1,0.1,10.6-1c-0.4-1.1-2.7-2-4.2-1.7c-0.6,0.1-0.8,0.1-1.3-0.2
	C142.5,26.4,141.5,26.2,140.3,26.5"/>
</svg>
